<svg xmlns="http://www.w3.org/2000/svg" viewBox="0 0 301 201"><defs><style>.cls-1{fill:#231815;stroke:#231815;opacity:0.16;}.cls-1,.cls-3,.cls-4{stroke-miterlimit:10;}.cls-2{opacity:0.1;}.cls-3{fill:#595757;stroke:#595757;}.cls-4,.cls-6{fill:#fff;}.cls-4{stroke:#fff;}.cls-5{fill:#727171;opacity:0.15;}</style></defs><g id="レイヤー_2" data-name="レイヤー 2"><rect class="cls-1" x="0.5" y="0.5" width="300" height="200"/></g><g id="レイヤー_3" data-name="レイヤー 3"><g class="cls-2"><path class="cls-3" d="M26.17,44.31h2.19l.58,6.34c.11,1,.15,1.68.17,2.64h.11c.4-1,.73-1.63,1.22-2.64l3.06-6.34h2.29L32.93,59H31.44l1.79-9.25c.19-1,.44-2.1.65-3.15l-.09,0c-.46,1-.94,2.08-1.38,3l-3,6h-1.3l-.63-6c-.11-.93-.17-2-.21-3l-.13,0c-.17,1-.38,2.16-.57,3.15L24.81,59H23.32Z" transform="translate(0.5 0.5)"/><path class="cls-3" d="M40.05,63.41c-2.08,0-3.42-1-3.42-2.49,0-2.1,1.83-2.8,5.44-2.84l1.62,0A14.26,14.26,0,0,1,44,55.29l-.13,0a4.23,4.23,0,0,1-3.42,1.91,2.57,2.57,0,0,1-2.83-2.63,5.26,5.26,0,0,1,.06-.86l1.09-5.6h1.53l-1,5.35a5.43,5.43,0,0,0-.08.82,1.44,1.44,0,0,0,1.6,1.64,4.37,4.37,0,0,0,3.4-2.33l1.07-5.48h1.51l-1.26,6.44a23.41,23.41,0,0,0-.36,3.89C45,61.44,43.29,63.41,40.05,63.41Zm3.57-4.17-1.32,0c-2.9,0-4.18.35-4.18,1.57,0,.88,1,1.28,2.06,1.28C42.38,62.11,43.37,61.06,43.62,59.24Z" transform="translate(0.5 0.5)"/><path class="cls-3" d="M70.33,59.21A4.09,4.09,0,0,1,66.68,57l-1.51-2.44.17-1.26.77,0c2.8-.15,4-1,4-2.41a1.51,1.51,0,0,0-1.64-1.64,4.7,4.7,0,0,0-3.73,2.73L63.3,59H61.77l3-15.43H66.3l-1,5.4A9.5,9.5,0,0,1,65,50l.11,0a4.13,4.13,0,0,1,3.56-2.12,2.73,2.73,0,0,1,3,2.85c0,2.12-1.66,3.36-4.85,3.7l1,1.66c.9,1.47,1.68,1.82,2.6,1.82a4.62,4.62,0,0,0,2.14-.59h.32l-.26,1.33A5.83,5.83,0,0,1,70.33,59.21Z" transform="translate(0.5 0.5)"/><path class="cls-3" d="M78,53.34l1.13-5.25h1.53l-1.11,5.2a8.76,8.76,0,0,0-.19,1.77c0,1.8,1.07,2.85,3.15,2.85a6.46,6.46,0,0,0,2.73-.59h.32l-.26,1.33a7.54,7.54,0,0,1-2.85.56c-2.88,0-4.68-1.36-4.68-4a19.88,19.88,0,0,1-5.06,3.4h-.32l.25-1.33A22.54,22.54,0,0,0,78,53.34ZM79.13,46l.44-2.23h2.15L81.27,46Z" transform="translate(0.5 0.5)"/><path class="cls-3" d="M90.47,53.42l.7-3.61H87.68l.25-1.3h3.49l.63-3.22,1.26-.23h.31L93,48.51h4.7l-.25,1.3H92.7L92,53.29a8.76,8.76,0,0,0-.19,1.77c0,1.82,1.13,2.85,3.23,2.85a6.46,6.46,0,0,0,2.73-.59h.32l-.26,1.33a7.54,7.54,0,0,1-2.85.56c-3,0-4.73-1.32-4.77-3.9a18.69,18.69,0,0,1-5,3.34H85l.25-1.33A21.27,21.27,0,0,0,90.47,53.42Z" transform="translate(0.5 0.5)"/><path class="cls-3" d="M109.58,50.75a6.38,6.38,0,0,1-.1,1h-1.56A5.91,5.91,0,0,0,108,51c0-1-.42-1.78-1.87-1.78-1.81,0-3.91,1.78-3.91,5.52,0,2,1.05,3.21,3.11,3.21a7.9,7.9,0,0,0,3.38-.86H109l-.25,1.32a8.7,8.7,0,0,1-3.55.84c-3,0-4.59-1.7-4.59-4.45,0-4.09,2.75-6.88,5.6-6.88C108.34,47.88,109.58,48.93,109.58,50.75Z" transform="translate(0.5 0.5)"/><path class="cls-3" d="M120.61,57a.74.74,0,0,0,.81.78,3.67,3.67,0,0,0,1.58-.45h.31l-.25,1.33a4.45,4.45,0,0,1-1.93.42c-1.32,0-2.06-.63-2.06-1.89a7.26,7.26,0,0,1,.13-1.2l.69-3.59a6.71,6.71,0,0,0,.19-1.34c0-1.22-.65-1.83-1.68-1.83s-2.16.63-3.34,2.73l-1.36,7h-1.53l3-15.43h1.53l-1,5.08a10.69,10.69,0,0,1-.35,1.33l.1,0c.9-1.41,1.91-2.14,3.21-2.14,1.68,0,2.94,1,2.94,3.12a7.42,7.42,0,0,1-.19,1.43l-.63,3.17A7.6,7.6,0,0,0,120.61,57Z" transform="translate(0.5 0.5)"/><path class="cls-3" d="M133.9,57.05h.31L134,58.37a8.45,8.45,0,0,1-3.42.84c-3,0-4.79-1.65-4.79-4.55,0-3.42,2.25-6.78,5.86-6.78,1.93,0,3.21,1,3.21,2.64,0,2.19-1.8,3.42-5.23,3.66l-2.24.14v.36a3,3,0,0,0,3.29,3.23A7.69,7.69,0,0,0,133.9,57.05Zm-6.41-3.95,1.81-.1c2.75-.17,4-.92,4-2.37,0-.91-.59-1.47-1.76-1.47C129.28,49.16,127.94,51,127.49,53.1Z" transform="translate(0.5 0.5)"/><path class="cls-3" d="M146.81,51a7.42,7.42,0,0,1-.19,1.43L146,55.6a7.6,7.6,0,0,0-.18,1.39.74.74,0,0,0,.81.78,3.67,3.67,0,0,0,1.58-.45h.31l-.25,1.33a4.45,4.45,0,0,1-1.93.42c-1.32,0-2.06-.63-2.06-1.89a6.32,6.32,0,0,1,.13-1.2l.69-3.59a6.71,6.71,0,0,0,.19-1.34c0-1.22-.65-1.83-1.68-1.83s-2.16.63-3.34,2.73l-1.36,7h-1.54l1.45-7.47a12.27,12.27,0,0,0,.19-2.25V48.09h1.54l0,2,.11,0c.92-1.45,1.93-2.2,3.27-2.2C145.55,47.88,146.81,48.84,146.81,51Z" transform="translate(0.5 0.5)"/><path class="cls-3" d="M159.41,51a7.42,7.42,0,0,1-.19,1.43l-.63,3.17A7.8,7.8,0,0,0,158.4,57a.74.74,0,0,0,.82.78,3.67,3.67,0,0,0,1.58-.45h.31l-.25,1.33a4.45,4.45,0,0,1-1.93.42c-1.32,0-2.06-.63-2.06-1.89A6.32,6.32,0,0,1,157,56l.69-3.59a6.71,6.71,0,0,0,.19-1.34c0-1.22-.65-1.83-1.68-1.83s-2.16.63-3.34,2.73l-1.36,7H150l1.45-7.47a12.27,12.27,0,0,0,.19-2.25V48.09h1.53l0,2,.11,0c.92-1.45,1.93-2.2,3.27-2.2C158.15,47.88,159.41,48.84,159.41,51Z" transform="translate(0.5 0.5)"/></g></g><g id="レイヤー_1" data-name="レイヤー 1"><path class="cls-4" d="M25,42.75h2.19l.58,6.34c.11,1,.15,1.68.17,2.64h.11c.4-1,.73-1.63,1.22-2.64l3.06-6.34h2.29l-2.86,14.7H30.29l1.79-9.26c.19-1,.44-2.1.65-3.15l-.09,0c-.46,1-.94,2.07-1.38,3l-3,6H27l-.63-6c-.11-.93-.17-2-.21-3L26,45c-.17,1.05-.38,2.16-.57,3.15l-1.78,9.26H22.17Z" transform="translate(0.5 0.5)"/><path class="cls-4" d="M38.9,61.85c-2.08,0-3.42-1.05-3.42-2.49,0-2.1,1.83-2.8,5.44-2.84l1.62,0a14.26,14.26,0,0,1,.27-2.77l-.13,0a4.23,4.23,0,0,1-3.42,1.91A2.57,2.57,0,0,1,36.43,53a5.26,5.26,0,0,1,.06-.86l1.09-5.6h1.53l-1,5.35a5.43,5.43,0,0,0-.08.82,1.44,1.44,0,0,0,1.6,1.64A4.37,4.37,0,0,0,43,52l1.07-5.48h1.51L44.3,53a23.41,23.41,0,0,0-.36,3.89C43.8,59.88,42.14,61.85,38.9,61.85Zm3.57-4.17-1.32,0c-2.9,0-4.18.35-4.18,1.57,0,.88,1,1.28,2.06,1.28C41.23,60.55,42.22,59.5,42.47,57.68Z" transform="translate(0.5 0.5)"/><path class="cls-4" d="M69.18,57.66a4.1,4.1,0,0,1-3.65-2.25L64,53l.17-1.26.77,0c2.8-.15,4-1,4-2.41a1.51,1.51,0,0,0-1.64-1.64,4.7,4.7,0,0,0-3.73,2.73l-1.39,7.1H60.62l3-15.44h1.53l-1.05,5.4a8.9,8.9,0,0,1-.25,1l.11,0a4.13,4.13,0,0,1,3.56-2.12,2.73,2.73,0,0,1,3,2.85c0,2.12-1.66,3.36-4.85,3.7l1,1.66c.9,1.47,1.68,1.82,2.6,1.82a4.72,4.72,0,0,0,2.14-.58h.32l-.26,1.32A5.84,5.84,0,0,1,69.18,57.66Z" transform="translate(0.5 0.5)"/><path class="cls-4" d="M76.81,51.78l1.13-5.25h1.53l-1.11,5.2a8.76,8.76,0,0,0-.19,1.77c0,1.8,1.07,2.85,3.15,2.85a6.61,6.61,0,0,0,2.73-.58h.32l-.26,1.32a7.36,7.36,0,0,1-2.85.57c-2.88,0-4.68-1.37-4.68-4a19.88,19.88,0,0,1-5.06,3.4H71.2l.25-1.32A22.59,22.59,0,0,0,76.81,51.78ZM78,44.45l.44-2.23h2.15l-.45,2.23Z" transform="translate(0.5 0.5)"/><path class="cls-4" d="M89.32,51.86l.7-3.61H86.53l.25-1.3h3.49l.63-3.22,1.26-.23h.31L91.8,47h4.7l-.25,1.3h-4.7l-.67,3.48a8.76,8.76,0,0,0-.19,1.77c0,1.82,1.13,2.85,3.23,2.85a6.61,6.61,0,0,0,2.73-.58H97l-.26,1.32a7.36,7.36,0,0,1-2.85.57c-3,0-4.73-1.33-4.77-3.91a18.69,18.69,0,0,1-5,3.34H83.8l.25-1.32A21.58,21.58,0,0,0,89.32,51.86Z" transform="translate(0.5 0.5)"/><path class="cls-4" d="M108.43,49.19a6.38,6.38,0,0,1-.1,1h-1.56a5.91,5.91,0,0,0,.07-.8c0-1-.42-1.78-1.87-1.78-1.81,0-3.91,1.78-3.91,5.52,0,2,1,3.21,3.11,3.21a7.76,7.76,0,0,0,3.38-.86h.31l-.25,1.33a8.87,8.87,0,0,1-3.55.84c-3,0-4.59-1.71-4.59-4.46,0-4.09,2.75-6.88,5.6-6.88C107.19,46.32,108.43,47.37,108.43,49.19Z" transform="translate(0.5 0.5)"/><path class="cls-4" d="M119.46,55.43a.73.73,0,0,0,.81.78,3.78,3.78,0,0,0,1.58-.44h.31l-.25,1.32a4.45,4.45,0,0,1-1.93.42c-1.32,0-2.06-.63-2.06-1.89a7.26,7.26,0,0,1,.13-1.2l.69-3.59a6.61,6.61,0,0,0,.19-1.34c0-1.22-.65-1.83-1.68-1.83s-2.16.63-3.34,2.73l-1.36,7.06H111L114,42h1.53l-1,5.08a9.17,9.17,0,0,1-.35,1.33l.1,0c.9-1.41,1.91-2.14,3.21-2.14,1.68,0,2.94,1,2.94,3.13a7.43,7.43,0,0,1-.19,1.42L119.65,54A7,7,0,0,0,119.46,55.43Z" transform="translate(0.5 0.5)"/><path class="cls-4" d="M132.75,55.49h.31l-.25,1.33a8.62,8.62,0,0,1-3.42.84c-3,0-4.79-1.66-4.79-4.56,0-3.42,2.25-6.78,5.86-6.78,1.93,0,3.21,1,3.21,2.64,0,2.19-1.8,3.43-5.23,3.66l-2.24.14v.36a3,3,0,0,0,3.29,3.23A7.69,7.69,0,0,0,132.75,55.49Zm-6.41-3.94,1.81-.11c2.75-.17,4-.92,4-2.37,0-.9-.59-1.47-1.76-1.47C128.13,47.6,126.79,49.4,126.34,51.55Z" transform="translate(0.5 0.5)"/><path class="cls-4" d="M145.66,49.45a7.43,7.43,0,0,1-.19,1.42L144.84,54a7.6,7.6,0,0,0-.18,1.39.73.73,0,0,0,.81.78,3.78,3.78,0,0,0,1.58-.44h.31l-.25,1.32a4.45,4.45,0,0,1-1.93.42c-1.32,0-2.06-.63-2.06-1.89a6.32,6.32,0,0,1,.13-1.2l.69-3.59a6.61,6.61,0,0,0,.19-1.34c0-1.22-.65-1.83-1.68-1.83s-2.16.63-3.34,2.73l-1.36,7.06h-1.54L137.66,50a12.2,12.2,0,0,0,.19-2.25V46.53h1.54l0,2,.11,0c.92-1.45,1.93-2.2,3.27-2.2C144.4,46.32,145.66,47.28,145.66,49.45Z" transform="translate(0.5 0.5)"/><path class="cls-4" d="M158.26,49.45a7.43,7.43,0,0,1-.19,1.42L157.44,54a7.8,7.8,0,0,0-.19,1.39.74.74,0,0,0,.82.78,3.78,3.78,0,0,0,1.58-.44H160l-.25,1.32a4.45,4.45,0,0,1-1.93.42c-1.32,0-2.06-.63-2.06-1.89a6.32,6.32,0,0,1,.13-1.2l.69-3.59a6.61,6.61,0,0,0,.19-1.34c0-1.22-.65-1.83-1.68-1.83s-2.16.63-3.34,2.73l-1.36,7.06h-1.54L150.26,50a12.2,12.2,0,0,0,.19-2.25V46.53H152l0,2,.11,0c.92-1.45,1.93-2.2,3.27-2.2C157,46.32,158.26,47.28,158.26,49.45Z" transform="translate(0.5 0.5)"/></g><g id="レイヤー_4のコピー" data-name="レイヤー 4のコピー"><path class="cls-5" d="M18.36,42.81V47.3a.52.52,0,0,1-.52.52H17.7a.52.52,0,0,1-.52-.52V42.79a.88.88,0,0,0-1-1,.88.88,0,0,0-1,1V47.3a.52.52,0,0,1-.52.52h-.13a.52.52,0,0,1-.52-.52V42.81a1,1,0,1,0-1.89,0v4.28c0,2.39.56,3,1.5,3.75a2.56,2.56,0,0,1,1.4,2.42v9.55h2.28V53.28a2.55,2.55,0,0,1,1.4-2.42c.94-.75,1.51-1.36,1.5-3.75V42.83A1,1,0,1,0,18.36,42.81Z" transform="translate(0.5 0.5)"/><path class="cls-5" d="M166.31,43.22c-.48,1.36-1.87,4.53-2,7.34-.14,4.35,2.53,3.71,2.58,6.56v5.7h2.26V43.22C169.2,41.57,167.06,41.12,166.31,43.22Z" transform="translate(0.5 0.5)"/></g><g id="レイヤー_4" data-name="レイヤー 4"><path class="cls-6" d="M17,41.39v4.49a.52.52,0,0,1-.52.52h-.14a.52.52,0,0,1-.52-.52V41.37a.88.88,0,0,0-1-1,.88.88,0,0,0-1,1v4.51a.52.52,0,0,1-.52.52h-.14a.52.52,0,0,1-.52-.52V41.39a1,1,0,1,0-1.89,0V45.7c0,2.38.56,3,1.5,3.74a2.56,2.56,0,0,1,1.4,2.42v9.55h2.28V51.86a2.57,2.57,0,0,1,1.4-2.42c.94-.74,1.51-1.36,1.5-3.74V41.41A.94.94,0,1,0,17,41.39Z" transform="translate(0.5 0.5)"/><path class="cls-6" d="M165.32,41.81c-.48,1.35-1.88,4.53-2,7.33-.14,4.35,2.53,3.71,2.57,6.56v5.7h2.27V41.81C168.21,40.16,166.07,39.7,165.32,41.81Z" transform="translate(0.5 0.5)"/></g></svg>