<svg xmlns="http://www.w3.org/2000/svg" viewBox="0 0 160.29 25.47"><defs><style>.cls-1{opacity:0.1;fill:#595757;stroke:#595757;}.cls-1,.cls-2{font-size:21px;stroke-miterlimit:10;font-family:DicoMono-Script, Dico Mono;}.cls-2,.cls-4{fill:#fff;}.cls-2{stroke:#fff;}.cls-3{fill:#727171;opacity:0.15;}</style></defs><g id="レイヤー_3" data-name="レイヤー 3"><text class="cls-1" transform="translate(12.83 19.91)">My kitchenn</text></g><g id="レイヤー_1" data-name="レイヤー 1"><text class="cls-2" transform="translate(11.68 18.35)">My kitchenn</text></g><g id="レイヤー_4のコピー" data-name="レイヤー 4のコピー"><path class="cls-3" d="M17.65,42.81V47.3a.52.52,0,0,1-.52.52H17a.52.52,0,0,1-.52-.52V42.79a.88.88,0,0,0-1-1,.88.88,0,0,0-1,1V47.3a.52.52,0,0,1-.52.52h-.14a.52.52,0,0,1-.52-.52V42.81a1,1,0,1,0-1.89,0v4.28c0,2.39.56,3,1.5,3.75a2.55,2.55,0,0,1,1.4,2.42v9.55h2.28V53.28A2.56,2.56,0,0,1,18,50.86c.94-.75,1.51-1.36,1.5-3.75V42.83A1,1,0,1,0,17.65,42.81Z" transform="translate(-10.04 -39.1)"/><path class="cls-3" d="M167.44,43.22c-.48,1.36-1.87,4.53-2,7.34-.13,4.35,2.53,3.71,2.58,6.56v5.7h2.26l0,0V43.22C170.34,41.57,168.2,41.12,167.44,43.22Z" transform="translate(-10.04 -39.1)"/></g><g id="レイヤー_4" data-name="レイヤー 4"><path class="cls-4" d="M16.24,41.39v4.49a.52.52,0,0,1-.52.52h-.14a.52.52,0,0,1-.52-.52V41.37a.88.88,0,0,0-1-1,.88.88,0,0,0-1,1v4.51a.52.52,0,0,1-.52.52h-.14a.52.52,0,0,1-.52-.52V41.39a1,1,0,1,0-1.89,0V45.7c0,2.38.56,3,1.5,3.74A2.56,2.56,0,0,1,13,51.86v9.55h2.27V51.86a2.56,2.56,0,0,1,1.41-2.42c.94-.74,1.5-1.36,1.5-3.74V41.41A1,1,0,1,0,16.24,41.39Z" transform="translate(-10.04 -39.1)"/><path class="cls-4" d="M166,41.81c-.49,1.35-1.88,4.53-2,7.33-.14,4.35,2.53,3.71,2.57,6.56v5.7h2.27V41.81C168.92,40.16,166.78,39.7,166,41.81Z" transform="translate(-10.04 -39.1)"/></g></svg>