<svg xmlns="http://www.w3.org/2000/svg" viewBox="0 0 166.92 25.47"><defs><style>.cls-1{opacity:0.1;fill:#595757;stroke:#595757;}.cls-1,.cls-2{font-size:21px;stroke-miterlimit:10;font-family:DicoMono-Script, Dico Mono;}.cls-2,.cls-4{fill:#fff;}.cls-2{stroke:#fff;}.cls-3{fill:#727171;opacity:0.15;}</style></defs><g id="レイヤー_3" data-name="レイヤー 3"><text class="cls-1" transform="translate(16.39 19.91)">My kitchenn</text></g><g id="レイヤー_1" data-name="レイヤー 1"><text class="cls-2" transform="translate(15.24 18.35)">My kitchenn</text></g><g id="レイヤー_4のコピー" data-name="レイヤー 4のコピー"><path class="cls-3" d="M14.19,42.36l1.53,4.22a.52.52,0,0,1-.31.67l-.13,0a.52.52,0,0,1-.67-.31l-1.54-4.24a.87.87,0,0,0-1.24-.57.88.88,0,0,0-.59,1.23l1.54,4.24a.52.52,0,0,1-.31.67l-.13,0a.51.51,0,0,1-.66-.31l-1.54-4.22a1,1,0,1,0-1.77.66l1.47,4c.8,2.24,1.55,2.62,2.68,3,.92.3,1.65.4,2.15,1.8l3.27,9,2.14-.78-3.27-9a2.55,2.55,0,0,1,.49-2.76c.63-1,.95-1.79.13-4l-1.47-4A.94.94,0,1,0,14.19,42.36Z" transform="translate(-6.48 -39.1)"/><path class="cls-3" d="M170.58,43.82c-.91,1.1-3.31,3.61-4.35,6.21-1.61,4,1.11,4.35.18,7l-1.95,5.36,2.13.77v0l3.27-9,3.43-9.45C173.87,43.25,172,42.09,170.58,43.82Z" transform="translate(-6.48 -39.1)"/></g><g id="レイヤー_4" data-name="レイヤー 4"><path class="cls-4" d="M12.37,41.52l1.53,4.22a.51.51,0,0,1-.31.66l-.13.05a.51.51,0,0,1-.66-.31L11.25,41.9A.88.88,0,0,0,10,41.33a.88.88,0,0,0-.59,1.24L11,46.81a.53.53,0,0,1-.32.66l-.13.05a.51.51,0,0,1-.66-.31L8.32,43a1,1,0,1,0-1.77.66l1.47,4c.81,2.24,1.55,2.63,2.69,3,.91.3,1.64.4,2.15,1.8l3.26,9,2.14-.78L15,51.7a2.56,2.56,0,0,1,.49-2.76c.63-1,1-1.79.13-4l-1.47-4A1,1,0,1,0,12.37,41.52Z" transform="translate(-6.48 -39.1)"/><path class="cls-4" d="M169.74,42c-.92,1.11-3.31,3.61-4.35,6.22-1.62,4,1.11,4.35.17,7l-1.95,5.36,2.13.78v0l3.27-9L172.45,43C173,41.43,171.17,40.27,169.74,42Z" transform="translate(-6.48 -39.1)"/></g></svg>