<svg xmlns="http://www.w3.org/2000/svg" viewBox="0 0 140.31 23.66"><defs><style>.cls-1{fill:#e9bb28;}.cls-2{fill:#f8b62d;}.cls-3{font-size:21px;fill:#fff;stroke:#fff;stroke-miterlimit:10;stroke-width:0.75px;font-family:DicoMono-Script, Dico Mono;}</style></defs><g id="レイヤー_3" data-name="レイヤー 3"><path class="cls-1" d="M20.51,59.62A616.14,616.14,0,0,1,111.83,58c15.74.89,31.62,2.37,47.16-2.38" transform="translate(-20.39 -39.22)"/><path class="cls-2" d="M158.3,53.9c.2,0,0-.31,0-.37C158.05,53.68,158.33,54,158.3,53.9Z" transform="translate(-20.39 -39.22)"/><polygon class="cls-2" points="134.91 16.24 134.93 16.1 134.53 16.52 134.91 16.24"/><path class="cls-2" d="M152.25,56.13c.4.48,1.09-.3,1.67-.25l.12.1.15-.48C153.55,55.72,152.75,56.2,152.25,56.13Z" transform="translate(-20.39 -39.22)"/><path class="cls-2" d="M150.42,55.3c.13.19-.32.25.38,0l-.07,0Z" transform="translate(-20.39 -39.22)"/><path class="cls-2" d="M150.73,55.26c.31-.08-.24-.14,0,0Z" transform="translate(-20.39 -39.22)"/><path class="cls-2" d="M149.27,55.63l.4-.24c-.11-.11-.49-.08-.37-.19C148.89,55.36,149,55.47,149.27,55.63Z" transform="translate(-20.39 -39.22)"/><path class="cls-2" d="M148.93,56.08l.21-.11S149,55.91,148.93,56.08Z" transform="translate(-20.39 -39.22)"/><path class="cls-2" d="M149.58,55.73l-.44.24c.08.07.11.24.21-.09C149.33,56,149.4,55.87,149.58,55.73Z" transform="translate(-20.39 -39.22)"/><path class="cls-2" d="M149.86,55.77c.25.08.57.09.18.35C150.84,55.9,150.65,55.55,149.86,55.77Z" transform="translate(-20.39 -39.22)"/><path class="cls-2" d="M152.21,56.71l.35.09.24-.23C152.68,56.68,152.15,56.55,152.21,56.71Z" transform="translate(-20.39 -39.22)"/><path class="cls-2" d="M146.6,55.74c0,.12.19.29.24.43l.29-.17C147,56,146.65,55.9,146.6,55.74Z" transform="translate(-20.39 -39.22)"/><path class="cls-2" d="M146.84,56.17l-.45.24C146.81,56.39,146.88,56.29,146.84,56.17Z" transform="translate(-20.39 -39.22)"/><polygon class="cls-2" points="128.56 17.46 129.27 16.93 128.41 17.48 128.56 17.46"/><polygon class="cls-2" points="124.42 16.71 124.66 16.42 124.23 16.87 124.42 16.71"/><path class="cls-2" d="M143.63,56.1c.17-.24-.31-.35-.11-.5a2,2,0,0,0-.82.46A1.17,1.17,0,0,1,143.63,56.1Z" transform="translate(-20.39 -39.22)"/><path class="cls-2" d="M142.3,56.34a2.26,2.26,0,0,0,.4-.28A1.39,1.39,0,0,0,142.3,56.34Z" transform="translate(-20.39 -39.22)"/><path class="cls-2" d="M145.58,56.45a.55.55,0,0,0-.41-.28l.22.3Z" transform="translate(-20.39 -39.22)"/><path class="cls-2" d="M145.4,56.48h0l-.4,0Z" transform="translate(-20.39 -39.22)"/><path class="cls-2" d="M145.62,56.45h0S145.61,56.49,145.62,56.45Z" transform="translate(-20.39 -39.22)"/><path class="cls-2" d="M147.67,56.58c-.25.21-.81.49-.21.68C147.63,57,147.29,56.91,147.67,56.58Z" transform="translate(-20.39 -39.22)"/><path class="cls-2" d="M145.9,56.82h.51c0-.08-.12-.19,0-.3Z" transform="translate(-20.39 -39.22)"/><polygon class="cls-2" points="125.28 17.73 125.51 17.6 125.32 17.59 125.28 17.73"/><path class="cls-2" d="M143.19,56.57a1.42,1.42,0,0,1-.71.23,4.32,4.32,0,0,0,.88,0C143.39,56.72,143.5,56.53,143.19,56.57Z" transform="translate(-20.39 -39.22)"/><path class="cls-2" d="M144.27,56.57l-.05,0S144.28,56.62,144.27,56.57Z" transform="translate(-20.39 -39.22)"/><polygon class="cls-2" points="119.44 17.75 119.48 17.81 119.49 17.75 119.44 17.75"/><path class="cls-2" d="M143.41,56.88a.45.45,0,0,0,.46-.15,3.84,3.84,0,0,1-.51.1S143.34,56.9,143.41,56.88Z" transform="translate(-20.39 -39.22)"/><path class="cls-2" d="M141.58,56.55a3.53,3.53,0,0,0,.39.15C141.85,56.6,141.61,56.46,141.58,56.55Z" transform="translate(-20.39 -39.22)"/><path class="cls-2" d="M144.14,56.51l0,0C144.09,56.43,144.11,56.46,144.14,56.51Z" transform="translate(-20.39 -39.22)"/><path class="cls-2" d="M144.14,56.51a1.18,1.18,0,0,0-.27.22,1.6,1.6,0,0,0,.35-.14Z" transform="translate(-20.39 -39.22)"/><path class="cls-2" d="M139.11,59.07c0-.3.59-.6,1.11-.31.48-.25.1-1.21-.35-1.73,0,.13,0,.25-.5.45.19.15,1.14.32.73.61-.66.19-.55-.08-.89-.22.3.36-.82.59-.66,1.12l.59-.22C139.15,58.85,138.94,59,139.11,59.07Z" transform="translate(-20.39 -39.22)"/><path class="cls-2" d="M140.83,57l.2,0a2,2,0,0,1-.74-.36c-.33.16-.4.27-.41.37h1Z" transform="translate(-20.39 -39.22)"/><path class="cls-2" d="M142,56.89c-.13.34-.62.52-.29.84.6-.07.4-.3.75-.47-1,.16.27-.21-.45-.33a3,3,0,0,1,.52-.13,3.84,3.84,0,0,1-.51-.1h0s.06.06,0,0,0,0,0,0a.56.56,0,0,1,0,.12c-.29,0,0-.08,0-.12v-.05h0c-.32.09-.64.18-1,.25A2.7,2.7,0,0,0,142,56.89Z" transform="translate(-20.39 -39.22)"/><path class="cls-2" d="M147,58s0-.05,0-.07S146.91,58,147,58Z" transform="translate(-20.39 -39.22)"/><path class="cls-2" d="M146.6,57.87c.07,0,.11-.19.34-.18s0,.15.05.26c.13-.1.46-.29,0-.39l-.06,0c-.42-.07-1-.41-.9-.46A2.06,2.06,0,0,0,146.6,57.87Z" transform="translate(-20.39 -39.22)"/><path class="cls-2" d="M144.24,57.5l-.8.23.44.24,0-.16C144.32,57.84,144.2,57.64,144.24,57.5Z" transform="translate(-20.39 -39.22)"/><polygon class="cls-2" points="119.33 17.6 119.42 17.25 118.98 17.75 119.33 17.6"/><polygon class="cls-2" points="118.28 17.69 118.31 17.39 118.04 17.59 118.28 17.69"/><path class="cls-2" d="M78.06,58.79l-.24.09A1,1,0,0,0,78.06,58.79Z" transform="translate(-20.39 -39.22)"/><path class="cls-2" d="M79.82,58.82l0-.14C79.78,58.76,79.75,58.82,79.82,58.82Z" transform="translate(-20.39 -39.22)"/><path class="cls-2" d="M112.45,56.15c-.34-.3-.71-.75-.69-.41l.09.33A.89.89,0,0,1,112.45,56.15Z" transform="translate(-20.39 -39.22)"/><path class="cls-2" d="M94.26,57.32l.1.1.25-.3Z" transform="translate(-20.39 -39.22)"/><path class="cls-2" d="M94,58.66l-.46-.22A1.52,1.52,0,0,0,94,58.66Z" transform="translate(-20.39 -39.22)"/><path class="cls-2" d="M68.47,59.2l-.27.34C68.64,59.53,68.44,59.37,68.47,59.2Z" transform="translate(-20.39 -39.22)"/><path class="cls-2" d="M127.79,57a2.46,2.46,0,0,0-.75-.21C127.39,57,127.68,57.3,127.79,57Z" transform="translate(-20.39 -39.22)"/><path class="cls-2" d="M78.76,55.34c-.15.06-.21.13-.21.2C78.71,55.48,78.79,55.42,78.76,55.34Z" transform="translate(-20.39 -39.22)"/><path class="cls-2" d="M126.16,56.78a.83.83,0,0,0,.16.09,2.1,2.1,0,0,1,.72,0A.78.78,0,0,0,126.16,56.78Z" transform="translate(-20.39 -39.22)"/><path class="cls-2" d="M33.72,60.41l-.08,0S33.67,60.42,33.72,60.41Z" transform="translate(-20.39 -39.22)"/><path class="cls-2" d="M23.33,57.94a3.32,3.32,0,0,1,.41-.06A.91.91,0,0,0,23.33,57.94Z" transform="translate(-20.39 -39.22)"/><path class="cls-2" d="M134.4,56.87c.23,0,0,0,0,0Z" transform="translate(-20.39 -39.22)"/><path class="cls-2" d="M135.52,58.15a.19.19,0,0,0-.09.16A.27.27,0,0,1,135.52,58.15Z" transform="translate(-20.39 -39.22)"/><path class="cls-2" d="M123.81,58.71h0C123.85,58.77,123.84,58.76,123.81,58.71Z" transform="translate(-20.39 -39.22)"/><path class="cls-2" d="M134.74,57a1.15,1.15,0,0,0-.28-.09Z" transform="translate(-20.39 -39.22)"/><path class="cls-2" d="M134.7,56.86l.19,0S134.9,56.8,134.7,56.86Z" transform="translate(-20.39 -39.22)"/><path class="cls-2" d="M134.09,56.89a1.14,1.14,0,0,1,.37,0c-.05,0-.07,0-.06-.05Z" transform="translate(-20.39 -39.22)"/><path class="cls-2" d="M52.29,58.51l0,0C52,58.62,52.12,58.6,52.29,58.51Z" transform="translate(-20.39 -39.22)"/><path class="cls-2" d="M106.34,59.21h0Z" transform="translate(-20.39 -39.22)"/><path class="cls-2" d="M105.51,59.42c.37-.39.56-.33.82-.23l-.22-1Z" transform="translate(-20.39 -39.22)"/><path class="cls-2" d="M73.86,58.9l.57.29c-.69.48-1.19.32-.65.73.08-1,2.23-.12,2.31-1.13l.37.21c-.1,0-.12,0-.23,0,.74.49.55-.74,1.5-.6.33.08.56.23.33.35l.74-.25c.21,0,.16.2,0,.18l1.12-.07v0a4.61,4.61,0,0,1,.7-.51c.29.15-.14.1-.07.23l.63-.24c.25.26-.27.52-.7.48.58,1,.52-.26,1.77.34l-.59.13c.38.58.83.37,1.49.74-.15-.19-1.32-.92-.64-1.17a.85.85,0,0,0,.81-.09c0,.37.35.28.8.27l0,.48c.48-.13.45-.38.74-.59.53.06.64.43.76.74.86.09-.59-.6.43-.68A3.28,3.28,0,0,0,88,58.54c.49.18-.1.3.08.44l.45-.38c.11,0,.07.13,0,.19.38-.15,0-.48.63-.6.17-.53,1.19.8,1.93.22.18.14-.09.29,0,.48a5.85,5.85,0,0,0,1.69-.78l.69.33c-.5-.37.16-.78.75-1.12-.18-.18-.33-.33-.43-.41l.92-.23c.11.08,0,.24-.14.44l.17-.11c.32.19.14.46-.1.72l-.32-.31a1.33,1.33,0,0,0-.42.89.59.59,0,0,1,.31-.12c-.07.07-.11.14-.08.19s.13-.05.28-.17l.19.54.06-.21,1.19.37a7.3,7.3,0,0,1,3-1.45c-.35.38-.09.64-.13,1.1-.35-.5-1.06.18-1.76,0,.37.07.28.29.18.36l1.27-.41c0,.38.26.3.58.47-.22-.76,1-.47,1.48-.69,0,.26-.11.51-.73.43.66.58.92-.85,1.58-.34-.16,0-.24,0-.3.08.36-.21,1.22,0,1,.22h-.15c1,.13,3.07.13,3.25-.5a4.34,4.34,0,0,1-.23.89l1.91-2.06c-.19.54.36,1.87-.5,2.14a1.38,1.38,0,0,0,1,0c-.16-.09-.37-.81-.14-.85.58.64.41.35,1.14.9-.24-.13.08-1,.47-.92-.07.12,0,.85-.16.93l1-.79c-.25.14-.08.71.12,1-.09-.17.84.06,1.1,0l-.4-.22c1.09.18,1.15-1.13,2.23-1-.14.16-.39,1,.16,1.19.28-.42,1.24-2,2.22-2.29l.17.26.75-.24a15.79,15.79,0,0,1-2.6,2.4c.4.22.1.3.71.31.21.25-.35.34-.53.34l1.42.23c0-.51,1.12-.44,1.09-.86l-1.58.43c0-.51,1-1.38,2-1.23.25.22-.24.89-.23,1.06.14-.17,1-.28,1.07-.15l-.45.24c.55.23,1-.61,1.61-.09.23,0,.66.69.72.39a4.31,4.31,0,0,1-.05-2.79,7.56,7.56,0,0,1,1.45.92c.36.47-.64,1-.33,1.44,0-.13.24-.29.33-.34.24.13-.12.42.42.39.11-.51,1.08.09.27-.42.53-.12.55.13,1.17.14-.18-.34.61-1.09,1.13-1.21a.6.6,0,0,0,.13.38c1.07.09,1.63.35,2.63.4.09.12.56.29.35.5a1.12,1.12,0,0,1,.6-.26c.58.46-.7,0-.26.6.05-.3.82-.39,1.26-.56-.12-.46-1-.12-1.46,0,0-.63.81-1.27,1.85-1.53.83-.13.35.42.5.33,1.55.15,1.34-1.08,2.61-.6.51.41,0,.8.13,1.09-.68.15-1-.27-1.49-.26l.56.2a1.16,1.16,0,0,1-.91.11c.42.36,2.63.12,3.83.43.21-.14.58-.28.41-.44l-.38.06c-.35-.32.71-.45.23-.6a2.68,2.68,0,0,1,1.78-.43l.14.46c0-.13-.47-.26-.67-.12.3-.21,1.11.6,1.42,0l-.5-.31c.5-.24,1.11-.75,1.74-.62-.3-.44-.14.06-.61-.46.41.65-1.6,0-1,.69-.47-.61-.8-.24-1.4-.76,0,.16.21.29-.32.22a.45.45,0,0,1-.11.13h0l0,0s0,0,0,0a.6.6,0,0,1,.28.23c-.26.35-1.1.34-1.39.52-.31-.07.13-.17,0-.34l-.42.28c-.05-.34-.84-.56-.1-.76l-.66,0a1.77,1.77,0,0,0-1.26-.14c-.31-.07-.8.36-.52.1l-1,.2V57c-1-.07-2.14.5-3.3-.15a2.7,2.7,0,0,1-1.29,0l-.1-.29c-.45.08-1.33-.35-1.54-.06-.44-.81-2.15-.28-2.93-.46l0,.38a6.45,6.45,0,0,0-1.75.13l0,.34c-.6.25-1.48-.32-2.4-.34.07-.13.3-.08.46,0-1-.83-2.35.41-3.31-.2a.61.61,0,0,1-.61,0h0a2.63,2.63,0,0,0-.33-.2,1.13,1.13,0,0,0,.28.2,3.42,3.42,0,0,0-.78.08l-.1-.36h-.06c-.28-.14-.24.16-.11.44a1.37,1.37,0,0,0-.38.2c-.2-.59-.76.16-1-.48-.21.29-1.45.15-1.63.78,0-.08-.09-.12.06-.12a1.13,1.13,0,0,0-.92,0l-.11-.47-.73.58c-.4-.3-.57-.47-.14-.8-1,.49-.83.16-1.71.66l0-.29c-.3,0-.81.37-1,.12-.66-.59-3.4-.24-5.15-.81.31.89-.81-.42-.9.26-.1-.21-.34-.34,0-.51-.9.18-1.34-.37-2,.18-.1-.21.2-.3.11-.42-.07,0-.29.17-.38,0s.14-.17.28-.25c-.92,0-1,.63-1.12,1.23-.46-.3-.69-.26-1,.12-.16-.2-.42-.41.15-.46-.32,0-2-.34-2,.14-.1-.12-.45-.05-.54,0A9.33,9.33,0,0,0,90,56.15l.19.08c-.29.57-.59.11-1.16.17v-.06c-1.3-.44-.57.19-1.85-.3l.06.36c-.13.77-1.14-.48-1.89-.19l.27.21c-.42.26-1.14-1.07-1.55-1.17-.09-.07.14-.11.27-.16-1.08-.47-.15.47-.95.57-.15-.26.2-.65-.34-.7-.27-.2-1.58.82-2.32.33.16.2.32.39,0,.54-.57.06-1.55-.75-2.06-.14a.21.21,0,0,1-.11-.15c-.44.15-1.42.26-1.68.6-.41-1.24-2.72.61-2.72-.53l-1.34.06,0-.11a1.56,1.56,0,0,0-1.46.48c-.2-.08-.06-.18,0-.24a2.58,2.58,0,0,0-2.43.42l-.12-.37c-.28.22-1.82-.57-3.05-.11a.25.25,0,0,1,.13-.17c-1.38.47-3.34-1-3.82.41l-.91.35c1.19.08-.16.6.33.81-.46.09-1.21-.38-.64-.46l.09.06c.19-.71-1.48-.21-1.46-.69-2.33.12-4.61-.22-6.79-.15l.27.54h-.76c-.21-.12-.29-.42.25-.42-.29-.3-.9.3-.91.42-1.07-.18.39-.66.07-.66l-.45.06.11.06c-.35.24-.37.48-1,.48-.42-.09-.22-.33-.39-.34,0,0,0-.06-.25,0h-1l.4.41c-.41.23-.9,0-.43.49-.69-.72-3.59-.09-4-.31A3.5,3.5,0,0,1,42.7,57c.18.08.32.56-.31.53.17-1-1.17-.36-1.72-1.05.48.45-1.78.22-1,.86-.53-.05,0-.38-.46-.59-1.23.46-2.77-.08-4.3.16,0,.13.26.32-.06.54L34,56.84c-.29.09-.22.78-.81.37.09.1.22.26,0,.32-3.07-.43-6.12,1-9.27,0,.43.21.16.26-.16.3.21,0,0,.33.08.5L22.5,58c-.19.51-1.37.15-1.46.64l.4-.13c-.49.61.86,1.18.85,1.9.54-.69,1.66.8,2.57-.19.23.12-.16.24,0,.4.22-.33.52-.42,1.09-.33l-.06.08a20.73,20.73,0,0,1,4.05.11l-.16-.34a1.53,1.53,0,0,1,.66.19c.39-.57-1.07.06-.72-.57.56.69,2.68-.2,3.08.61.58,0-.2-.4.38-.44l.17.21.13-.29a.64.64,0,0,1,.63.47c-.1,0-.26.07-.36.09.51.23,1.39-.18,1.57-.11l-.57-.1c1.58-.32,3.54-.16,5.06-.7l-.13-.16c1.16-.38,1,.13,2.24-.09l0,0a1.72,1.72,0,0,1,.95-.29c-.32.22.63.35.22.59,1.25-.4.61-.3,1.42-1l.21.27a1.23,1.23,0,0,1,.94-.51c-.52.27.43.4-.15.75,1.39.54,2-.72,2.65.14.59-.8-1.19-.37-.85-.55-.31-.23.49-.6.92-.54s.78.94,1.87.88c-.11,0-.12.06-.23.06.42.18.79-.3,1.31,0,.26-.47.65,0,.7-.59l-1,.17c.56-.17,1.06-.89,2-.59a1.66,1.66,0,0,1-.53.39c.28.16.52-.14.81,0-.05.59-1.21.18-1.79.65.3.24,1.13-.47.85.18.4-.83,1.07.06,1.79-.59l0,.35a1.36,1.36,0,0,1,.57-.24l-.37.48c.58-.42,1.16.3,1.72.07-1.19.05-.28-.42-.8-.66,1.47-.53.89.9,2.54.68-.23,0-.85-.19-.51-.37a2.35,2.35,0,0,1,.94.37c1.09-.11-.18-.36.28-.59.39.42.53-.2,1-.35l0,.36c1.25.19.31-.77,1.44-.52l-.46.52.58-.15-.11.42A1.8,1.8,0,0,1,62.22,59c-.15-.25.07-.66.62-.68.38.21-.2.35.58.28-.17.23-.36.52-.71.19,0,.12-.17.23-.2.35.41.24,1,0,1.31,0a.88.88,0,0,1-.31-.08l1.13-.53c.18.13,0,.24-.1.35.23,0,.39-.21.72-.25-.08.3-.05.6-.53.75l1.08-.35c.07.13.56.34.42.45.61.16,1.47-.59,2.27-.37a.45.45,0,0,1,.29-.16c.75.06,1.42.41,2.3,0l.51.52c.69-.12-.69-.65.47-.86.82-.18.31.44.6.59.4-.27,1.11-.81,1.86-.38C74.28,58.94,74.09,58.86,73.86,58.9Zm8.57-.22c-.16.07-.5.3-.62.09C82,58.36,82.15,58.55,82.43,58.68Zm13.07-.63c-.13.12-.32.05-.53-.09A1,1,0,0,1,95.5,58.05Zm36.43-.89v0C131.55,57,131.68,57.09,131.93,57.16Zm.77.16c.07,0,.07-.1,0-.15s-.23.1-.42.07C132.37,57.34,132.47,57.41,132.7,57.32ZM49.75,56.17l.16.09C49.57,56.38,49.66,56.28,49.75,56.17Z" transform="translate(-20.39 -39.22)"/><path class="cls-2" d="M94,58.51a.4.4,0,0,1-.07-.2C93.87,58.37,93.87,58.44,94,58.51Z" transform="translate(-20.39 -39.22)"/><path class="cls-2" d="M68.52,59.14h0s0,0,0,.06Z" transform="translate(-20.39 -39.22)"/><path class="cls-2" d="M120.66,60a.62.62,0,0,1-.3-.21C120.35,59.86,120.41,59.94,120.66,60Z" transform="translate(-20.39 -39.22)"/><path class="cls-2" d="M136.73,56.67l-.49.1a.71.71,0,0,1,.44.11C136.67,56.8,136.57,56.68,136.73,56.67Z" transform="translate(-20.39 -39.22)"/><path class="cls-2" d="M141.07,58.72c.07,0,.15,0,.22-.06l0-.16C141,58.52,140.75,58.67,141.07,58.72Z" transform="translate(-20.39 -39.22)"/><path class="cls-2" d="M137.21,57.86c0,.3.35.19.69.12,0,0,0,0-.06,0C137.93,57.56,137.57,57.71,137.21,57.86Z" transform="translate(-20.39 -39.22)"/><path class="cls-2" d="M138,58a1.17,1.17,0,0,1,.32,0C138.34,57.78,138.17,57.92,138,58Z" transform="translate(-20.39 -39.22)"/><path class="cls-2" d="M133.67,57.12c.16.08.1-.39.19-.27C134,56.46,132.78,57.33,133.67,57.12Z" transform="translate(-20.39 -39.22)"/><polygon class="cls-2" points="117.13 19.63 117 19.26 116.81 19.57 117.13 19.63"/><path class="cls-2" d="M134.78,58.63l.56.1c0-.06.06-.1.14-.13C135.14,58.59,134.77,58.52,134.78,58.63Z" transform="translate(-20.39 -39.22)"/><path class="cls-2" d="M135.48,58.6a.85.85,0,0,0,.45-.07A2.07,2.07,0,0,0,135.48,58.6Z" transform="translate(-20.39 -39.22)"/><polygon class="cls-2" points="116.38 19.76 116.21 19.69 115.82 19.67 116.38 19.76"/><path class="cls-2" d="M128.84,58.5l-.6.09c-.07.13.09.21.32.16S128.93,58.63,128.84,58.5Z" transform="translate(-20.39 -39.22)"/><path class="cls-2" d="M130.65,59.57c-.16-.08-.17-.17-.26-.29l0,.46Z" transform="translate(-20.39 -39.22)"/><path class="cls-2" d="M128.88,59.64c-.07.13-.89.34-.12.34C128.82,59.85,129.43,59.76,128.88,59.64Z" transform="translate(-20.39 -39.22)"/><polygon class="cls-2" points="99.41 19.43 99.56 19.43 99.58 18.67 99.41 19.43"/><path class="cls-2" d="M111.68,60c.7.22.2-.47.83-.2.18-.17-.52-.22-.34-.36C111.73,59.61,111.51,59.49,111.68,60Z" transform="translate(-20.39 -39.22)"/><path class="cls-2" d="M112.17,59.45a1.58,1.58,0,0,0,.23-.11A.69.69,0,0,0,112.17,59.45Z" transform="translate(-20.39 -39.22)"/><polygon class="cls-2" points="1.22 18.46 0.74 18.34 1.07 18.57 1.22 18.46"/><path class="cls-2" d="M20.78,58.32l-.16-.47-.23.46C20.49,58.28,20.69,58.22,20.78,58.32Z" transform="translate(-20.39 -39.22)"/><path class="cls-2" d="M83.7,59.67l0-.12c-.07-.13-.18-.14-.4-.16Z" transform="translate(-20.39 -39.22)"/><polygon class="cls-2" points="57.09 20.05 57.2 20.05 57 19.62 57.09 20.05"/><path class="cls-2" d="M72.27,59.85c.21,0,.46-.08.67-.07C72.48,59.87,72.2,59.3,72.27,59.85Z" transform="translate(-20.39 -39.22)"/></g><g id="レイヤー_1" data-name="レイヤー 1"><text class="cls-3" transform="translate(1.34 18.22)">My kitchenn</text></g></svg>